<svg width="277" height="289" viewBox="0 0 277 289" fill="none" xmlns="http://www.w3.org/2000/svg">
<circle cx="120.5" cy="117.5" r="117.5" fill="black"/>
<path fill-rule="evenodd" clip-rule="evenodd" d="M13.7203 63.9834C14.9528 67.4633 19.4021 68.4533 21.9939 65.8244L61.3283 25.9271C63.9202 23.2982 62.8671 18.8635 59.37 17.6805L43.88 12.4405C42.0663 11.827 40.0615 12.303 38.7173 13.6665L9.41331 43.3897C8.06908 44.7532 7.62152 46.7646 8.26077 48.5694L13.7203 63.9834ZM19.5954 54.3707C20.5927 58.1068 25.272 59.3453 27.9869 56.5916L52.7155 31.5092C55.4303 28.7555 54.1255 24.0942 50.3756 23.1502L44.8234 21.7524C43.1051 21.3198 41.2862 21.829 40.0422 23.0908L19.3893 44.0392C18.1453 45.301 17.662 47.127 18.119 48.8389L19.5954 54.3707Z" fill="black"/>
<path fill-rule="evenodd" clip-rule="evenodd" d="M229.79 260.882C220.244 243.558 199.031 227.766 181 218.456L193.728 205.728L235.447 247.447L248.529 264.771C250.296 266.539 253.723 268.769 255.246 267.246L263.378 275.378C253.832 284.924 239.891 279.214 229.79 260.882ZM235.447 247.447L193.728 205.728L206.456 193C215.766 211.031 231.558 232.244 248.882 241.79C267.214 251.891 272.924 265.832 263.378 275.378L255.246 267.246C256.66 265.832 252.418 260.882 252.418 260.882L235.447 247.447Z" fill="black"/>
<path d="M181 218.456L180.646 218.102L180.163 218.586L180.771 218.9L181 218.456ZM229.79 260.882L229.352 261.124L229.352 261.124L229.79 260.882ZM193.728 205.728L194.081 205.374L193.728 205.021L193.374 205.374L193.728 205.728ZM235.447 247.447L235.846 247.146L235.825 247.118L235.801 247.094L235.447 247.447ZM248.529 264.771L248.13 265.073L248.151 265.1L248.175 265.125L248.529 264.771ZM263.378 275.378L263.731 275.732L264.085 275.378L263.731 275.024L263.378 275.378ZM235.447 247.447L235.094 247.801L235.114 247.821L235.137 247.839L235.447 247.447ZM193.728 205.728L193.374 205.374L193.021 205.728L193.374 206.081L193.728 205.728ZM206.456 193L206.9 192.771L206.586 192.163L206.102 192.646L206.456 193ZM248.882 241.79L249.124 241.352L249.124 241.352L248.882 241.79ZM263.378 275.378L263.024 275.731L263.378 276.085L263.731 275.731L263.378 275.378ZM252.418 260.882L252.797 260.557L252.766 260.52L252.728 260.49L252.418 260.882ZM180.771 218.9C198.768 228.193 219.877 243.928 229.352 261.124L230.228 260.641C220.612 243.188 199.294 227.339 181.229 218.012L180.771 218.9ZM193.374 205.374L180.646 218.102L181.354 218.809L194.081 206.081L193.374 205.374ZM235.801 247.094L194.081 205.374L193.374 206.081L235.094 247.801L235.801 247.094ZM248.928 264.47L235.846 247.146L235.048 247.749L248.13 265.073L248.928 264.47ZM254.893 266.893C254.635 267.151 254.284 267.27 253.823 267.251C253.35 267.232 252.792 267.068 252.19 266.789C250.987 266.232 249.735 265.271 248.882 264.418L248.175 265.125C249.09 266.039 250.435 267.078 251.769 267.696C252.435 268.005 253.129 268.224 253.783 268.25C254.447 268.277 255.096 268.103 255.6 267.6L254.893 266.893ZM263.731 275.024L255.6 266.893L254.893 267.6L263.024 275.732L263.731 275.024ZM229.352 261.124C234.432 270.343 240.514 276.458 246.597 279.044C249.644 280.34 252.697 280.751 255.614 280.21C258.533 279.668 261.282 278.181 263.731 275.732L263.024 275.024C260.7 277.348 258.128 278.726 255.432 279.226C252.735 279.727 249.882 279.354 246.988 278.124C241.189 275.659 235.249 269.753 230.228 260.641L229.352 261.124ZM235.801 247.094L194.081 205.374L193.374 206.081L235.094 247.801L235.801 247.094ZM194.081 206.081L206.809 193.354L206.102 192.646L193.374 205.374L194.081 206.081ZM206.012 193.229C215.339 211.294 231.188 232.612 248.641 242.228L249.124 241.352C231.928 231.877 216.193 210.768 206.9 192.771L206.012 193.229ZM248.641 242.228C257.753 247.249 263.659 253.189 266.124 258.988C267.354 261.882 267.727 264.735 267.226 267.432C266.726 270.128 265.348 272.7 263.024 275.024L263.731 275.731C266.181 273.282 267.668 270.533 268.21 267.614C268.751 264.697 268.34 261.644 267.044 258.597C264.458 252.514 258.343 246.432 249.124 241.352L248.641 242.228ZM263.731 275.024L255.6 266.893L254.893 267.6L263.024 275.731L263.731 275.024ZM252.418 260.882C252.038 261.208 252.038 261.208 252.038 261.208C252.038 261.208 252.038 261.208 252.038 261.208C252.038 261.208 252.038 261.208 252.039 261.208C252.039 261.209 252.04 261.209 252.04 261.21C252.042 261.212 252.045 261.216 252.049 261.22C252.056 261.229 252.067 261.242 252.082 261.26C252.112 261.295 252.155 261.347 252.211 261.415C252.321 261.55 252.479 261.745 252.663 261.983C253.033 262.462 253.508 263.111 253.938 263.799C254.372 264.493 254.742 265.2 254.922 265.799C255.113 266.435 255.034 266.751 254.893 266.893L255.6 267.6C256.165 267.034 256.087 266.201 255.88 265.512C255.662 264.785 255.236 263.989 254.786 263.269C254.333 262.543 253.836 261.866 253.454 261.372C253.263 261.125 253.1 260.922 252.984 260.781C252.926 260.71 252.88 260.655 252.848 260.617C252.832 260.598 252.82 260.583 252.811 260.573C252.807 260.568 252.804 260.564 252.801 260.561C252.8 260.56 252.799 260.559 252.799 260.558C252.798 260.558 252.798 260.558 252.798 260.557C252.798 260.557 252.798 260.557 252.798 260.557C252.797 260.557 252.797 260.557 252.418 260.882ZM235.137 247.839L252.107 261.274L252.728 260.49L235.758 247.055L235.137 247.839Z" fill="black"/>
</svg>
